<?xml version="1.0" encoding="UTF-8"?>
<svg xmlns="http://www.w3.org/2000/svg" xmlns:xlink="http://www.w3.org/1999/xlink" viewBox="0 0 2341.65 1934.74">
  <defs>
    <style>
      .cls-1, .cls-2 {
        fill: none;
      }

      .cls-3 {
        clip-path: url(#clippath);
      }

      .cls-2 {
        stroke: #fff;
        stroke-miterlimit: 10;
        stroke-width: 15px;
      }

      .cls-4 {
        fill: #fff;
      }
    </style>
    <clipPath id="clippath">
      <circle class="cls-1" cx="1135.66" cy="888.95" r="519.34"/>
    </clipPath>
  </defs>
  <g id="Circle_outline" data-name="Circle outline">
    <path class="cls-2" d="m1135.66,1436.66c-73.93,0-145.64-14.5-213.21-43.07-65.21-27.57-123.79-67.07-174.07-117.36-50.29-50.29-89.79-108.86-117.36-174.07-28.57-67.57-43.07-139.29-43.07-213.21s14.5-145.64,43.07-213.21c27.57-65.21,67.07-123.79,117.36-174.07s108.86-89.79,174.07-117.36c67.57-28.57,139.29-43.07,213.21-43.07s145.64,14.5,213.21,43.07c65.21,27.57,123.79,67.07,174.07,117.36,50.29,50.29,89.79,108.86,117.36,174.07,28.57,67.57,43.07,139.29,43.07,213.21s-14.5,145.64-43.07,213.21c-27.57,65.21-67.07,123.79-117.36,174.07s-108.86,89.79-174.07,117.36c-67.57,28.57-139.29,43.07-213.21,43.07Z"/>
  </g>
  <g id="Connected_Lines_Objected" data-name="Connected Lines Objected">
    <g class="cls-3">
      <polygon class="cls-4" points="736.18 513.26 620.33 397.41 662.74 239.16 670.47 241.23 629.26 395.02 741.84 507.6 736.18 513.26"/>
      <polygon class="cls-4" points="625.99 629.11 467.74 586.7 469.81 578.98 623.6 620.19 736.18 507.6 741.84 513.26 625.99 629.11"/>
      <polygon class="cls-4" points="852.03 629.11 736.18 513.26 741.84 507.6 854.42 620.19 1008.22 578.98 1010.29 586.7 852.03 629.11"/>
      <rect class="cls-4" x="1026.15" y="580.09" width="8" height="161.53" transform="translate(-135.94 289.14) rotate(-15)"/>
      <polygon class="cls-4" points="1005.39 583.88 962.98 425.62 1078.83 309.77 1084.49 315.43 971.91 428.01 1013.12 581.81 1005.39 583.88"/>
      <polygon class="cls-4" points="628.66 1082.55 620.93 1080.48 663.77 920.59 823.66 963.43 821.59 971.16 669.43 930.39 628.66 1082.55"/>
      <rect class="cls-4" x="466.02" y="1098.42" width="161.53" height="8" transform="translate(-266.69 179.08) rotate(-15)"/>
      <polygon class="cls-4" points="662.74 1467 620.34 1308.75 733.36 1195.73 621.97 1084.34 627.63 1078.68 744.67 1195.73 629.26 1311.14 670.47 1464.93 662.74 1467"/>
      <polygon class="cls-4" points="1058.4 1467 1015.99 1308.75 1131.84 1192.9 1137.5 1198.56 1024.92 1311.14 1066.12 1464.93 1058.4 1467"/>
      <polygon class="cls-4" points="1210.94 1467 1203.22 1464.93 1244.43 1311.14 1131.84 1198.56 1137.5 1192.9 1253.35 1308.75 1210.94 1467"/>
      <rect class="cls-4" x="1421.81" y="580.09" width="8" height="161.53" transform="translate(-122.46 391.54) rotate(-15)"/>
      <polygon class="cls-4" points="1599.91 1326.04 1557.67 1168.39 1403.87 1127.18 1405.94 1119.45 1564.2 1161.86 1605.57 1316.25 1757.72 1275.48 1759.79 1283.2 1599.91 1326.04"/>
      <rect class="cls-4" x="1598.74" y="619.14" width="8" height="323.05" transform="translate(433.85 2126.74) rotate(-75)"/>
      <polygon class="cls-4" points="1401.05 583.88 1358.64 425.62 1474.49 309.77 1480.15 315.43 1367.56 428.01 1408.77 581.81 1401.05 583.88"/>
      <polygon class="cls-4" points="1606.6 781.7 1598.87 779.63 1641.28 621.38 1799.53 578.98 1801.6 586.7 1647.81 627.91 1606.6 781.7"/>
      <rect class="cls-4" x="775.32" y="849.08" width="323.05" height="8" transform="translate(-328.82 912.42) rotate(-45)"/>
      <polygon class="cls-4" points="1131.84 1198.56 1019.26 1085.97 861.6 1128.22 818.76 968.33 826.49 966.26 867.26 1118.42 1021.65 1077.05 1137.5 1192.9 1131.84 1198.56"/>
      <polygon class="cls-4" points="1137.5 1198.56 1131.84 1192.9 1247.69 1077.05 1405.94 1119.45 1403.87 1127.18 1250.08 1085.97 1137.5 1198.56"/>
      <polygon class="cls-4" points="1209.91 785.57 1050.02 742.73 1052.09 735 1204.25 775.77 1245.62 621.38 1403.87 578.98 1405.94 586.7 1252.15 627.91 1209.91 785.57"/>
      <polygon class="cls-4" points="1408.77 1124.35 1401.05 1122.28 1442.25 968.49 1326.84 853.08 1443.89 736.03 1449.54 741.69 1338.16 853.08 1451.18 966.1 1408.77 1124.35"/>
    </g>
  </g>
</svg>